# xmcd CD database file
#
# Track frame offsets:
#	150
#	8486
#	37012
#	60809
#	77360
#	108057
#	129428
#	156020
#	171908
#	202369
#	224202
#	255588
#	268969
#	278672
#	301717
#
# Disc length: 4297 seconds
#
# Revision: 0
# Processed by: cddbd v1.5.2PL0 Copyright (c) Steve Scherf et al.
# Submitted via: CDex 1.51
#
DISCID=c710c70f
DTITLE=Vlatko Stefanovski - Thunder From The Blue Sky
DYEAR=2008
DGENRE=Blues
TTITLE0=Amazing Grace
TTITLE1=Stormy Monday Blues
TTITLE2=Rock Me Baby
TTITLE3=What I'd Say
TTITLE4=Texas Flood
TTITLE5=Thrill Is Gone
TTITLE6=Hoochie Coochie Man
TTITLE7=Testify
TTITLE8=You Got To Move
TTITLE9=Need Your Love So Bad
TTITLE10=Spider In My Web
TTITLE11=Country
TTITLE12=Dizzy Fingers
TTITLE13=I'm So Glad
TTITLE14=Thunder From The Blue Sky
EXTD=YEAR: 2008
EXTT0=
EXTT1=
EXTT2=
EXTT3=
EXTT4=
EXTT5=
EXTT6=
EXTT7=
EXTT8=
EXTT9=
EXTT10=
EXTT11=
EXTT12=
EXTT13=
EXTT14=
PLAYORDER=
